<mxfile host="app.diagrams.net" modified="2022-11-30T10:44:12.156Z" agent="5.0 (Windows NT 10.0; Win64; x64) AppleWebKit/537.36 (KHTML, like Gecko) Chrome/107.0.0.0 Safari/537.36 Edg/107.0.1418.62" version="20.6.0" etag="kpRU-zTdKy_XkLBo5NGJ" type="github">
  <diagram id="gBH4EsTj5TEoexQeygFF" name="第 1 页">
    <mxGraphModel dx="1221" dy="706" grid="0" gridSize="10" guides="1" tooltips="1" connect="1" arrows="1" fold="1" page="1" pageScale="1" pageWidth="827" pageHeight="1169" math="0" shadow="0">
      <root>
        <mxCell id="0" />
        <mxCell id="1" parent="0" />
        <mxCell id="DXcyB1h3Fx_Xpm3eHu00-58" value="" style="rounded=0;whiteSpace=wrap;html=1;fontSize=13;" vertex="1" parent="1">
          <mxGeometry x="173.5" y="70" width="561" height="731" as="geometry" />
        </mxCell>
        <mxCell id="DXcyB1h3Fx_Xpm3eHu00-3" value="" style="endArrow=none;html=1;rounded=0;exitX=0.002;exitY=0.067;exitDx=0;exitDy=0;exitPerimeter=0;" edge="1" parent="1" source="DXcyB1h3Fx_Xpm3eHu00-58">
          <mxGeometry width="50" height="50" relative="1" as="geometry">
            <mxPoint x="177" y="122" as="sourcePoint" />
            <mxPoint x="736" y="118" as="targetPoint" />
          </mxGeometry>
        </mxCell>
        <mxCell id="DXcyB1h3Fx_Xpm3eHu00-5" value="" style="endArrow=none;html=1;rounded=0;exitX=0.5;exitY=1;exitDx=0;exitDy=0;entryX=0.5;entryY=0;entryDx=0;entryDy=0;" edge="1" parent="1" source="DXcyB1h3Fx_Xpm3eHu00-58" target="DXcyB1h3Fx_Xpm3eHu00-58">
          <mxGeometry width="50" height="50" relative="1" as="geometry">
            <mxPoint x="454" y="777" as="sourcePoint" />
            <mxPoint x="433" y="52" as="targetPoint" />
          </mxGeometry>
        </mxCell>
        <mxCell id="DXcyB1h3Fx_Xpm3eHu00-6" value="admin" style="text;html=1;strokeColor=none;fillColor=none;align=center;verticalAlign=middle;whiteSpace=wrap;rounded=0;" vertex="1" parent="1">
          <mxGeometry x="236" y="83" width="90" height="30" as="geometry" />
        </mxCell>
        <mxCell id="DXcyB1h3Fx_Xpm3eHu00-9" value="系统" style="text;html=1;strokeColor=none;fillColor=none;align=center;verticalAlign=middle;whiteSpace=wrap;rounded=0;" vertex="1" parent="1">
          <mxGeometry x="541.5" y="77" width="90" height="30" as="geometry" />
        </mxCell>
        <mxCell id="DXcyB1h3Fx_Xpm3eHu00-10" value="" style="html=1;verticalAlign=bottom;startArrow=circle;startFill=1;endArrow=open;startSize=6;endSize=8;rounded=0;fontSize=13;entryX=0;entryY=0.25;entryDx=0;entryDy=0;" edge="1" parent="1" target="DXcyB1h3Fx_Xpm3eHu00-13">
          <mxGeometry width="80" relative="1" as="geometry">
            <mxPoint x="251" y="181" as="sourcePoint" />
            <mxPoint x="509" y="199" as="targetPoint" />
          </mxGeometry>
        </mxCell>
        <mxCell id="DXcyB1h3Fx_Xpm3eHu00-12" value="管理员" style="text;html=1;strokeColor=none;fillColor=none;align=center;verticalAlign=middle;whiteSpace=wrap;rounded=0;fontSize=13;" vertex="1" parent="1">
          <mxGeometry x="339" y="164" width="60" height="30" as="geometry" />
        </mxCell>
        <mxCell id="DXcyB1h3Fx_Xpm3eHu00-13" value="分页显示&lt;br&gt;功能信息" style="rounded=1;whiteSpace=wrap;html=1;fontSize=13;" vertex="1" parent="1">
          <mxGeometry x="507" y="186" width="103" height="41" as="geometry" />
        </mxCell>
        <mxCell id="DXcyB1h3Fx_Xpm3eHu00-15" value="显示功能界面" style="rounded=1;whiteSpace=wrap;html=1;fontSize=13;" vertex="1" parent="1">
          <mxGeometry x="507" y="258" width="103" height="41" as="geometry" />
        </mxCell>
        <mxCell id="DXcyB1h3Fx_Xpm3eHu00-16" value="" style="endArrow=classic;html=1;rounded=0;fontSize=13;exitX=0.5;exitY=1;exitDx=0;exitDy=0;" edge="1" parent="1" source="DXcyB1h3Fx_Xpm3eHu00-13" target="DXcyB1h3Fx_Xpm3eHu00-15">
          <mxGeometry width="50" height="50" relative="1" as="geometry">
            <mxPoint x="386" y="298" as="sourcePoint" />
            <mxPoint x="436" y="248" as="targetPoint" />
          </mxGeometry>
        </mxCell>
        <mxCell id="DXcyB1h3Fx_Xpm3eHu00-17" value="" style="endArrow=classic;html=1;rounded=0;fontSize=13;exitX=1;exitY=0.5;exitDx=0;exitDy=0;entryX=0;entryY=0.5;entryDx=0;entryDy=0;" edge="1" parent="1" source="DXcyB1h3Fx_Xpm3eHu00-23" target="DXcyB1h3Fx_Xpm3eHu00-28">
          <mxGeometry width="50" height="50" relative="1" as="geometry">
            <mxPoint x="386" y="298" as="sourcePoint" />
            <mxPoint x="563" y="390" as="targetPoint" />
          </mxGeometry>
        </mxCell>
        <mxCell id="DXcyB1h3Fx_Xpm3eHu00-19" value="选择功能" style="rounded=1;whiteSpace=wrap;html=1;fontSize=13;" vertex="1" parent="1">
          <mxGeometry x="253" y="424.5" width="103" height="41" as="geometry" />
        </mxCell>
        <mxCell id="DXcyB1h3Fx_Xpm3eHu00-20" value="" style="endArrow=classic;html=1;rounded=0;fontSize=13;exitX=1;exitY=0.5;exitDx=0;exitDy=0;entryX=0;entryY=0.5;entryDx=0;entryDy=0;" edge="1" parent="1" source="DXcyB1h3Fx_Xpm3eHu00-19" target="DXcyB1h3Fx_Xpm3eHu00-29">
          <mxGeometry width="50" height="50" relative="1" as="geometry">
            <mxPoint x="386" y="298" as="sourcePoint" />
            <mxPoint x="494" y="346" as="targetPoint" />
          </mxGeometry>
        </mxCell>
        <mxCell id="DXcyB1h3Fx_Xpm3eHu00-21" value="查询功能" style="rounded=1;whiteSpace=wrap;html=1;fontSize=13;" vertex="1" parent="1">
          <mxGeometry x="505" y="514" width="103" height="41" as="geometry" />
        </mxCell>
        <mxCell id="DXcyB1h3Fx_Xpm3eHu00-23" value="输入功能信息" style="rounded=1;whiteSpace=wrap;html=1;fontSize=13;" vertex="1" parent="1">
          <mxGeometry x="253" y="330" width="103" height="41" as="geometry" />
        </mxCell>
        <mxCell id="DXcyB1h3Fx_Xpm3eHu00-24" value="" style="endArrow=none;html=1;rounded=0;fontSize=13;" edge="1" parent="1">
          <mxGeometry width="50" height="50" relative="1" as="geometry">
            <mxPoint x="610" y="352" as="sourcePoint" />
            <mxPoint x="657" y="352" as="targetPoint" />
          </mxGeometry>
        </mxCell>
        <mxCell id="DXcyB1h3Fx_Xpm3eHu00-25" value="" style="endArrow=none;html=1;rounded=0;fontSize=13;" edge="1" parent="1">
          <mxGeometry width="50" height="50" relative="1" as="geometry">
            <mxPoint x="656" y="356" as="sourcePoint" />
            <mxPoint x="654" y="204" as="targetPoint" />
          </mxGeometry>
        </mxCell>
        <mxCell id="DXcyB1h3Fx_Xpm3eHu00-26" value="" style="endArrow=classic;html=1;rounded=0;fontSize=13;" edge="1" parent="1">
          <mxGeometry width="50" height="50" relative="1" as="geometry">
            <mxPoint x="655" y="203" as="sourcePoint" />
            <mxPoint x="609" y="203" as="targetPoint" />
          </mxGeometry>
        </mxCell>
        <mxCell id="DXcyB1h3Fx_Xpm3eHu00-27" value="删除功能" style="rounded=1;whiteSpace=wrap;html=1;fontSize=13;" vertex="1" parent="1">
          <mxGeometry x="507" y="389" width="103" height="41" as="geometry" />
        </mxCell>
        <mxCell id="DXcyB1h3Fx_Xpm3eHu00-28" value="新增功能" style="rounded=1;whiteSpace=wrap;html=1;fontSize=13;" vertex="1" parent="1">
          <mxGeometry x="507" y="330" width="103" height="41" as="geometry" />
        </mxCell>
        <mxCell id="DXcyB1h3Fx_Xpm3eHu00-29" value="" style="rhombus;whiteSpace=wrap;html=1;fontSize=13;" vertex="1" parent="1">
          <mxGeometry x="442" y="431" width="35" height="28" as="geometry" />
        </mxCell>
        <mxCell id="DXcyB1h3Fx_Xpm3eHu00-30" value="" style="endArrow=classic;html=1;rounded=0;fontSize=13;entryX=1;entryY=0;entryDx=0;entryDy=0;exitX=0;exitY=0.5;exitDx=0;exitDy=0;" edge="1" parent="1" source="DXcyB1h3Fx_Xpm3eHu00-46" target="DXcyB1h3Fx_Xpm3eHu00-23">
          <mxGeometry width="50" height="50" relative="1" as="geometry">
            <mxPoint x="386" y="407" as="sourcePoint" />
            <mxPoint x="436" y="357" as="targetPoint" />
          </mxGeometry>
        </mxCell>
        <mxCell id="DXcyB1h3Fx_Xpm3eHu00-31" value="" style="endArrow=classic;html=1;rounded=0;fontSize=13;exitX=0.5;exitY=0;exitDx=0;exitDy=0;entryX=0;entryY=0.5;entryDx=0;entryDy=0;" edge="1" parent="1" source="DXcyB1h3Fx_Xpm3eHu00-29" target="DXcyB1h3Fx_Xpm3eHu00-27">
          <mxGeometry width="50" height="50" relative="1" as="geometry">
            <mxPoint x="386" y="407" as="sourcePoint" />
            <mxPoint x="436" y="357" as="targetPoint" />
          </mxGeometry>
        </mxCell>
        <mxCell id="DXcyB1h3Fx_Xpm3eHu00-32" value="" style="endArrow=classic;html=1;rounded=0;fontSize=13;exitX=0.5;exitY=1;exitDx=0;exitDy=0;entryX=0;entryY=0.5;entryDx=0;entryDy=0;" edge="1" parent="1" source="DXcyB1h3Fx_Xpm3eHu00-29" target="DXcyB1h3Fx_Xpm3eHu00-21">
          <mxGeometry width="50" height="50" relative="1" as="geometry">
            <mxPoint x="386" y="407" as="sourcePoint" />
            <mxPoint x="436" y="357" as="targetPoint" />
          </mxGeometry>
        </mxCell>
        <mxCell id="DXcyB1h3Fx_Xpm3eHu00-33" value="删除" style="text;html=1;strokeColor=none;fillColor=none;align=center;verticalAlign=middle;whiteSpace=wrap;rounded=0;fontSize=13;" vertex="1" parent="1">
          <mxGeometry x="442" y="397" width="60" height="30" as="geometry" />
        </mxCell>
        <mxCell id="DXcyB1h3Fx_Xpm3eHu00-34" value="查询" style="text;html=1;strokeColor=none;fillColor=none;align=center;verticalAlign=middle;whiteSpace=wrap;rounded=0;fontSize=13;" vertex="1" parent="1">
          <mxGeometry x="429.5" y="468" width="60" height="30" as="geometry" />
        </mxCell>
        <mxCell id="DXcyB1h3Fx_Xpm3eHu00-35" value="" style="endArrow=classic;html=1;rounded=0;fontSize=13;exitX=0.5;exitY=1;exitDx=0;exitDy=0;entryX=0.5;entryY=0;entryDx=0;entryDy=0;" edge="1" parent="1" source="DXcyB1h3Fx_Xpm3eHu00-21" target="DXcyB1h3Fx_Xpm3eHu00-36">
          <mxGeometry width="50" height="50" relative="1" as="geometry">
            <mxPoint x="386" y="407" as="sourcePoint" />
            <mxPoint x="559" y="530" as="targetPoint" />
          </mxGeometry>
        </mxCell>
        <mxCell id="DXcyB1h3Fx_Xpm3eHu00-36" value="显示功能界面" style="rounded=1;whiteSpace=wrap;html=1;fontSize=13;" vertex="1" parent="1">
          <mxGeometry x="505" y="571" width="103" height="41" as="geometry" />
        </mxCell>
        <mxCell id="DXcyB1h3Fx_Xpm3eHu00-37" value="" style="endArrow=classic;html=1;rounded=0;fontSize=13;entryX=0.5;entryY=0;entryDx=0;entryDy=0;exitX=0.5;exitY=1;exitDx=0;exitDy=0;" edge="1" parent="1" source="DXcyB1h3Fx_Xpm3eHu00-46" target="DXcyB1h3Fx_Xpm3eHu00-19">
          <mxGeometry width="50" height="50" relative="1" as="geometry">
            <mxPoint x="517" y="288.5" as="sourcePoint" />
            <mxPoint x="366" y="340" as="targetPoint" />
          </mxGeometry>
        </mxCell>
        <mxCell id="DXcyB1h3Fx_Xpm3eHu00-39" value="" style="endArrow=classic;html=1;rounded=0;fontSize=13;exitX=1;exitY=0.5;exitDx=0;exitDy=0;entryX=0;entryY=0.5;entryDx=0;entryDy=0;" edge="1" parent="1" source="DXcyB1h3Fx_Xpm3eHu00-29" target="DXcyB1h3Fx_Xpm3eHu00-40">
          <mxGeometry width="50" height="50" relative="1" as="geometry">
            <mxPoint x="386" y="407" as="sourcePoint" />
            <mxPoint x="502" y="452" as="targetPoint" />
          </mxGeometry>
        </mxCell>
        <mxCell id="DXcyB1h3Fx_Xpm3eHu00-40" value="修改功能" style="rounded=1;whiteSpace=wrap;html=1;fontSize=13;" vertex="1" parent="1">
          <mxGeometry x="509" y="446" width="103" height="41" as="geometry" />
        </mxCell>
        <mxCell id="DXcyB1h3Fx_Xpm3eHu00-41" value="" style="endArrow=none;html=1;rounded=0;fontSize=13;" edge="1" parent="1">
          <mxGeometry width="50" height="50" relative="1" as="geometry">
            <mxPoint x="610" y="409" as="sourcePoint" />
            <mxPoint x="657" y="409" as="targetPoint" />
          </mxGeometry>
        </mxCell>
        <mxCell id="DXcyB1h3Fx_Xpm3eHu00-42" value="" style="endArrow=none;html=1;rounded=0;fontSize=13;" edge="1" parent="1">
          <mxGeometry width="50" height="50" relative="1" as="geometry">
            <mxPoint x="612" y="468" as="sourcePoint" />
            <mxPoint x="659" y="468" as="targetPoint" />
          </mxGeometry>
        </mxCell>
        <mxCell id="DXcyB1h3Fx_Xpm3eHu00-43" value="" style="endArrow=none;html=1;rounded=0;fontSize=13;" edge="1" parent="1">
          <mxGeometry width="50" height="50" relative="1" as="geometry">
            <mxPoint x="658" y="468" as="sourcePoint" />
            <mxPoint x="656" y="351" as="targetPoint" />
          </mxGeometry>
        </mxCell>
        <mxCell id="DXcyB1h3Fx_Xpm3eHu00-44" value="修改" style="text;html=1;strokeColor=none;fillColor=none;align=center;verticalAlign=middle;whiteSpace=wrap;rounded=0;fontSize=13;" vertex="1" parent="1">
          <mxGeometry x="464" y="429" width="60" height="30" as="geometry" />
        </mxCell>
        <mxCell id="DXcyB1h3Fx_Xpm3eHu00-46" value="" style="rhombus;whiteSpace=wrap;html=1;fontSize=13;" vertex="1" parent="1">
          <mxGeometry x="433" y="264.5" width="35" height="28" as="geometry" />
        </mxCell>
        <mxCell id="DXcyB1h3Fx_Xpm3eHu00-47" value="" style="endArrow=classic;html=1;rounded=0;fontSize=13;entryX=1;entryY=0.5;entryDx=0;entryDy=0;exitX=0;exitY=0.5;exitDx=0;exitDy=0;" edge="1" parent="1" source="DXcyB1h3Fx_Xpm3eHu00-15" target="DXcyB1h3Fx_Xpm3eHu00-46">
          <mxGeometry width="50" height="50" relative="1" as="geometry">
            <mxPoint x="386" y="407" as="sourcePoint" />
            <mxPoint x="436" y="357" as="targetPoint" />
          </mxGeometry>
        </mxCell>
        <mxCell id="DXcyB1h3Fx_Xpm3eHu00-48" value="输入" style="text;html=1;strokeColor=none;fillColor=none;align=center;verticalAlign=middle;whiteSpace=wrap;rounded=0;fontSize=13;" vertex="1" parent="1">
          <mxGeometry x="384" y="254" width="60" height="30" as="geometry" />
        </mxCell>
        <mxCell id="DXcyB1h3Fx_Xpm3eHu00-49" value="选择" style="text;html=1;strokeColor=none;fillColor=none;align=center;verticalAlign=middle;whiteSpace=wrap;rounded=0;fontSize=13;" vertex="1" parent="1">
          <mxGeometry x="424" y="304" width="60" height="30" as="geometry" />
        </mxCell>
        <mxCell id="DXcyB1h3Fx_Xpm3eHu00-51" value="" style="endArrow=none;html=1;rounded=0;fontSize=13;exitX=1;exitY=0;exitDx=0;exitDy=0;" edge="1" parent="1" source="DXcyB1h3Fx_Xpm3eHu00-13">
          <mxGeometry width="50" height="50" relative="1" as="geometry">
            <mxPoint x="386" y="407" as="sourcePoint" />
            <mxPoint x="679" y="186" as="targetPoint" />
          </mxGeometry>
        </mxCell>
        <mxCell id="DXcyB1h3Fx_Xpm3eHu00-52" value="" style="endArrow=none;html=1;rounded=0;fontSize=13;" edge="1" parent="1">
          <mxGeometry width="50" height="50" relative="1" as="geometry">
            <mxPoint x="682" y="587" as="sourcePoint" />
            <mxPoint x="678" y="186" as="targetPoint" />
          </mxGeometry>
        </mxCell>
        <mxCell id="DXcyB1h3Fx_Xpm3eHu00-53" value="" style="endArrow=classic;html=1;rounded=0;fontSize=13;entryX=1;entryY=0.5;entryDx=0;entryDy=0;" edge="1" parent="1" target="DXcyB1h3Fx_Xpm3eHu00-55">
          <mxGeometry width="50" height="50" relative="1" as="geometry">
            <mxPoint x="683" y="584" as="sourcePoint" />
            <mxPoint x="589" y="655" as="targetPoint" />
          </mxGeometry>
        </mxCell>
        <mxCell id="DXcyB1h3Fx_Xpm3eHu00-54" value="" style="endArrow=classic;html=1;rounded=0;fontSize=13;entryX=0.5;entryY=0;entryDx=0;entryDy=0;exitX=0.5;exitY=1;exitDx=0;exitDy=0;" edge="1" parent="1" source="DXcyB1h3Fx_Xpm3eHu00-56" target="DXcyB1h3Fx_Xpm3eHu00-55">
          <mxGeometry width="50" height="50" relative="1" as="geometry">
            <mxPoint x="567" y="659" as="sourcePoint" />
            <mxPoint x="557" y="643" as="targetPoint" />
          </mxGeometry>
        </mxCell>
        <mxCell id="DXcyB1h3Fx_Xpm3eHu00-55" value="" style="ellipse;html=1;shape=endState;fillColor=#000000;strokeColor=#ff0000;fontSize=13;" vertex="1" parent="1">
          <mxGeometry x="541.5" y="715" width="30" height="30" as="geometry" />
        </mxCell>
        <mxCell id="DXcyB1h3Fx_Xpm3eHu00-56" value="退出" style="rounded=1;whiteSpace=wrap;html=1;fontSize=13;" vertex="1" parent="1">
          <mxGeometry x="505" y="637" width="103" height="41" as="geometry" />
        </mxCell>
        <mxCell id="DXcyB1h3Fx_Xpm3eHu00-57" value="" style="endArrow=classic;html=1;rounded=0;fontSize=13;exitX=0.5;exitY=1;exitDx=0;exitDy=0;entryX=0.5;entryY=0;entryDx=0;entryDy=0;" edge="1" parent="1" source="DXcyB1h3Fx_Xpm3eHu00-36" target="DXcyB1h3Fx_Xpm3eHu00-56">
          <mxGeometry width="50" height="50" relative="1" as="geometry">
            <mxPoint x="540.5" y="598" as="sourcePoint" />
            <mxPoint x="442" y="692" as="targetPoint" />
          </mxGeometry>
        </mxCell>
      </root>
    </mxGraphModel>
  </diagram>
</mxfile>
